<?xml version="1.0" standalone="no"?>
<!DOCTYPE svg PUBLIC "-//W3C//DTD SVG 20010904//EN"
 "http://www.w3.org/TR/2001/REC-SVG-20010904/DTD/svg10.dtd">
<svg version="1.0" xmlns="http://www.w3.org/2000/svg"
 width="1088.000000pt" height="1088.000000pt" viewBox="0 0 1088.000000 1088.000000"
 preserveAspectRatio="xMidYMid meet">
<metadata>
Created by potrace 1.14, written by Peter Selinger 2001-2017
</metadata>
<g transform="translate(0.000000,1088.000000) scale(0.100000,-0.100000)"
fill="#000000" stroke="none">
<path d="M5149 10876 c-2 -2 -49 -7 -104 -10 -55 -4 -111 -9 -125 -11 -29 -3
-121 -15 -165 -20 -40 -5 -154 -24 -185 -30 -14 -3 -41 -8 -60 -11 -19 -3 -53
-10 -75 -15 -48 -13 -73 -19 -100 -23 -11 -2 -40 -9 -65 -16 -25 -7 -53 -14
-62 -15 -10 -2 -22 -6 -26 -9 -5 -3 -19 -7 -33 -10 -13 -2 -55 -15 -94 -27
-38 -13 -74 -24 -80 -24 -11 -1 -126 -41 -160 -56 -11 -4 -51 -20 -90 -34 -75
-28 -267 -109 -300 -128 -11 -6 -38 -19 -60 -29 -22 -10 -47 -23 -55 -28 -8
-5 -35 -19 -60 -32 -45 -22 -218 -122 -289 -166 -20 -12 -46 -28 -58 -34 -13
-6 -23 -15 -23 -20 0 -4 -5 -8 -10 -8 -6 0 -28 -12 -49 -27 -21 -16 -49 -35
-61 -43 -20 -13 -78 -57 -105 -78 -5 -4 -26 -19 -45 -32 -19 -13 -41 -30 -48
-37 -7 -7 -41 -34 -75 -60 -34 -27 -69 -55 -78 -63 -8 -8 -55 -50 -103 -94
-136 -123 -294 -286 -417 -431 -19 -22 -39 -45 -45 -52 -7 -7 -52 -65 -100
-130 -49 -65 -92 -119 -96 -121 -5 -2 -8 -10 -8 -18 0 -8 -4 -14 -10 -14 -5 0
-10 -7 -10 -15 0 -8 -4 -15 -10 -15 -5 0 -10 -7 -10 -15 0 -8 -3 -15 -8 -15
-4 0 -16 -16 -26 -35 -11 -19 -23 -35 -28 -35 -4 0 -8 -5 -8 -11 0 -7 -15 -35
-33 -63 -19 -28 -42 -67 -53 -86 -10 -19 -29 -49 -41 -68 -12 -19 -30 -51 -40
-73 -9 -21 -20 -39 -25 -39 -4 0 -8 -4 -8 -9 0 -5 -35 -82 -78 -172 -72 -150
-106 -226 -107 -239 0 -3 -6 -15 -13 -26 -6 -12 -8 -24 -5 -28 3 -3 2 -6 -4
-6 -5 0 -10 -6 -10 -12 -1 -7 -19 -61 -42 -120 -22 -58 -42 -117 -45 -130 -2
-13 -14 -50 -26 -83 -18 -53 -46 -151 -55 -195 -2 -8 -12 -51 -23 -95 -11 -44
-23 -97 -26 -119 -4 -21 -8 -41 -10 -45 -4 -6 -9 -35 -22 -118 -3 -21 -9 -65
-14 -98 -5 -33 -12 -82 -15 -110 -3 -27 -8 -63 -10 -80 -20 -158 -27 -647 -11
-830 14 -169 15 -180 20 -215 3 -19 8 -60 12 -90 3 -30 8 -58 10 -61 2 -4 6
-22 8 -40 7 -49 13 -82 36 -189 11 -52 23 -107 26 -121 2 -14 18 -75 35 -135
37 -132 35 -126 42 -144 7 -20 28 -88 31 -103 2 -7 6 -19 9 -27 4 -8 20 -53
37 -100 44 -121 78 -207 107 -270 73 -158 167 -346 179 -358 8 -7 14 -22 14
-33 0 -10 4 -19 8 -19 5 0 19 -20 31 -45 12 -24 26 -47 32 -50 5 -4 7 -11 4
-16 -4 -5 -2 -9 3 -9 5 0 15 -13 22 -30 7 -16 16 -30 21 -30 5 0 9 -4 9 -10 0
-8 108 -175 132 -205 5 -5 36 -48 70 -95 34 -47 65 -87 68 -90 3 -3 23 -27 45
-55 22 -27 44 -55 50 -62 5 -6 35 -40 65 -75 87 -100 204 -218 1689 -1707 940
-941 1425 -1420 1461 -1443 98 -60 158 -80 258 -84 41 -1 76 -5 79 -8 4 -3 12
-1 19 5 8 6 20 9 29 6 8 -4 17 -2 19 2 5 7 50 20 71 21 15 0 125 62 154 87 18
15 276 271 572 568 1780 1786 2410 2419 2478 2494 42 46 88 96 104 112 15 17
27 32 27 35 0 3 10 15 23 28 46 48 182 229 260 346 31 47 61 90 67 97 6 7 15
24 22 38 6 14 14 25 18 25 4 0 10 8 14 18 3 9 10 24 16 32 19 29 100 171 100
176 0 3 9 19 21 35 11 16 17 29 12 29 -4 0 -3 4 2 8 18 13 125 242 200 427 45
113 131 360 140 405 2 8 8 29 15 45 6 17 11 31 11 33 -1 1 -1 3 0 5 0 1 2 10
5 20 2 9 6 23 7 30 2 6 7 30 12 52 4 22 10 44 13 50 3 5 7 16 8 25 1 8 13 73
28 144 15 71 28 145 31 165 2 20 4 36 5 36 1 0 3 14 5 30 1 17 5 50 9 75 24
156 36 363 35 590 0 170 -2 214 -14 370 -8 112 -35 326 -49 395 -1 6 -8 44
-15 85 -7 41 -17 86 -22 100 -4 14 -10 41 -13 60 -6 40 -81 315 -97 357 -12
31 -20 62 -21 81 -1 6 -5 12 -10 12 -4 0 -8 7 -8 15 0 33 -176 466 -192 473
-5 2 -8 9 -8 16 0 33 -191 373 -310 552 -84 127 -222 314 -254 347 -9 8 -16
18 -16 21 0 3 -10 16 -22 29 -13 13 -43 48 -68 78 -55 66 -377 389 -443 444
-27 22 -56 47 -65 56 -9 8 -39 33 -67 55 -27 21 -55 44 -61 49 -6 6 -22 18
-35 28 -118 85 -154 113 -157 119 -2 5 -7 8 -12 8 -8 0 -141 87 -167 110 -7 5
-14 10 -17 10 -3 0 -46 25 -96 56 -118 71 -329 181 -450 233 -52 23 -107 48
-121 56 -14 8 -29 12 -33 8 -3 -3 -6 -1 -6 5 0 7 -3 11 -7 10 -7 -2 -37 7 -98
32 -25 10 -57 22 -70 26 -5 2 -44 15 -85 30 -61 21 -247 80 -265 83 -3 1 -6 1
-7 2 -2 0 -14 2 -28 5 -14 2 -36 8 -50 14 -14 5 -38 11 -55 14 -16 3 -79 16
-140 29 -60 14 -117 25 -125 25 -8 1 -40 6 -70 12 -30 6 -75 13 -100 16 -25 3
-56 8 -70 10 -14 2 -56 6 -95 9 -38 3 -83 8 -100 11 -34 5 -611 15 -616 10z
m541 -1080 c92 -7 205 -21 205 -26 0 -1 16 -3 35 -5 19 -2 46 -6 60 -9 14 -3
41 -8 60 -10 41 -6 46 -7 164 -36 49 -12 94 -23 100 -25 6 -1 18 -4 26 -7 16
-6 158 -50 175 -54 29 -8 173 -62 185 -69 8 -6 17 -10 20 -10 23 -1 317 -143
348 -167 6 -6 12 -7 12 -3 0 5 8 1 18 -7 9 -8 44 -30 77 -48 99 -55 345 -225
404 -280 9 -8 33 -27 53 -42 20 -15 57 -47 82 -72 25 -24 46 -42 46 -40 0 12
257 -259 319 -336 11 -14 26 -32 34 -40 7 -8 28 -35 47 -60 19 -25 37 -47 40
-50 3 -3 10 -12 15 -21 40 -64 151 -225 158 -227 4 -2 5 -8 1 -13 -3 -5 0 -9
5 -9 6 0 11 -4 11 -9 0 -5 15 -34 34 -65 61 -102 177 -344 225 -471 13 -33 27
-69 32 -80 18 -41 84 -255 93 -305 2 -8 6 -22 9 -30 4 -8 9 -26 11 -40 3 -14
7 -36 10 -50 3 -14 8 -36 11 -50 3 -14 7 -36 10 -50 3 -14 7 -36 10 -50 3 -14
8 -36 11 -50 2 -14 7 -43 9 -65 2 -22 6 -56 9 -75 3 -19 8 -60 10 -91 1 -31 5
-60 8 -65 10 -17 6 -489 -3 -501 -7 -7 -6 -14 1 -18 6 -3 8 -9 6 -13 -4 -6
-14 -85 -21 -157 -2 -30 -15 -116 -20 -147 -2 -9 -7 -38 -11 -65 -9 -55 -8
-49 -17 -88 -4 -16 -10 -40 -12 -52 -10 -46 -13 -59 -26 -103 -6 -25 -13 -52
-15 -60 -3 -20 -10 -41 -17 -60 -9 -25 -39 -120 -41 -133 -1 -7 -8 -22 -14
-34 -7 -13 -10 -23 -7 -23 4 0 3 -6 -2 -13 -4 -6 -8 -14 -9 -17 0 -3 -4 -14
-9 -25 -4 -11 -24 -58 -43 -105 -18 -47 -38 -89 -43 -94 -5 -6 -9 -18 -9 -28
0 -10 -5 -18 -12 -18 -6 0 -9 -3 -6 -6 6 -5 -66 -154 -103 -214 -9 -14 -42
-70 -74 -125 -33 -55 -62 -102 -65 -105 -3 -3 -23 -32 -44 -64 -22 -33 -45
-66 -53 -75 -7 -9 -57 -70 -110 -136 -124 -154 -92 -121 -885 -919 -373 -374
-678 -682 -678 -683 0 -7 -41 -43 -49 -43 -5 0 -11 -4 -13 -10 -4 -12 -1076
-1090 -1084 -1090 -3 0 -311 306 -683 680 -372 374 -765 769 -874 878 -108
109 -199 196 -202 194 -3 -3 -5 -1 -5 4 0 6 -179 190 -397 410 -387 389 -441
446 -561 589 -49 58 -142 186 -142 195 0 6 -4 10 -8 10 -5 0 -15 12 -23 28 -8
15 -16 29 -19 32 -10 10 -50 69 -50 74 0 3 -18 33 -40 68 -40 60 -202 380
-208 409 -2 8 -14 37 -27 64 -29 63 -69 175 -102 285 -13 47 -27 92 -30 100
-3 8 -8 26 -10 40 -2 14 -6 32 -10 40 -7 18 -5 8 -36 160 -14 69 -28 145 -32
170 -3 25 -8 63 -11 85 -6 49 -14 136 -17 192 -1 23 -5 45 -9 49 -4 3 -3 14 2
24 5 10 7 20 4 23 -9 8 -8 207 0 357 7 130 10 158 19 225 4 22 9 60 12 85 4
25 15 90 26 145 11 55 23 111 25 124 3 14 7 28 9 32 3 4 7 24 11 45 3 22 9 44
12 49 4 6 7 12 7 15 4 25 19 83 32 120 21 61 63 182 70 200 4 8 7 17 8 20 5
14 27 67 35 85 5 11 19 43 31 70 30 70 111 231 143 285 15 25 29 53 33 63 3 9
9 17 14 17 5 0 9 5 9 11 0 6 14 31 30 56 17 24 30 48 30 54 0 5 4 9 8 9 5 0
14 11 20 25 7 14 16 31 22 38 43 52 90 118 90 126 0 5 3 11 8 13 4 2 25 25 47
53 129 161 305 345 440 460 39 33 72 63 75 66 3 3 55 43 115 88 61 45 115 85
121 90 6 5 42 28 80 52 38 24 71 47 72 51 2 4 7 8 12 8 4 0 52 25 106 56 101
57 338 174 354 174 5 0 21 6 37 14 50 26 95 43 248 91 83 26 157 50 165 53 8
3 20 6 25 6 6 1 24 5 40 9 193 48 377 78 570 93 44 3 81 7 83 9 4 3 429 -4
492 -9z"/>
<path d="M5326 8622 c-2 -1 -38 -4 -82 -7 -43 -3 -97 -7 -119 -10 -22 -3 -58
-8 -80 -11 -22 -3 -68 -12 -103 -20 -35 -8 -67 -12 -72 -9 -6 4 -10 1 -10 -5
0 -6 -4 -9 -9 -5 -5 3 -13 0 -16 -6 -4 -5 -13 -8 -20 -5 -7 2 -16 2 -19 -2 -4
-3 -12 -7 -19 -8 -110 -23 -483 -178 -495 -206 -2 -4 -9 -8 -16 -8 -13 0 -265
-164 -281 -183 -5 -7 -28 -25 -50 -42 -21 -16 -47 -36 -55 -45 -9 -8 -39 -36
-67 -61 -101 -92 -231 -245 -319 -374 -85 -123 -213 -364 -240 -450 -2 -5 -22
-66 -45 -135 -23 -69 -44 -132 -47 -140 -3 -8 -6 -22 -7 -30 -3 -17 -8 -44
-23 -110 -12 -51 -21 -117 -37 -255 -11 -94 -5 -397 10 -490 3 -22 8 -52 11
-67 7 -44 13 -81 19 -108 4 -14 7 -34 9 -45 2 -11 9 -40 16 -65 7 -25 13 -52
15 -60 2 -8 15 -49 29 -90 15 -41 28 -82 31 -92 2 -9 11 -30 19 -47 9 -17 14
-31 12 -31 -8 0 113 -239 151 -298 18 -29 33 -56 33 -61 0 -5 3 -11 8 -13 4
-1 32 -39 62 -83 30 -44 59 -85 65 -91 5 -6 26 -31 45 -55 79 -99 300 -308
390 -370 21 -14 46 -33 55 -42 9 -10 21 -17 26 -17 5 0 19 -8 30 -18 10 -11
32 -25 47 -33 15 -8 29 -16 32 -19 25 -25 308 -161 405 -194 28 -10 57 -20 65
-23 63 -25 225 -65 351 -89 170 -31 522 -39 679 -15 41 7 89 14 105 16 48 7
186 37 215 47 8 3 44 14 80 24 36 9 71 22 78 27 6 5 12 6 12 2 0 -4 6 -3 13 2
6 6 30 16 52 23 90 28 408 195 480 252 6 4 53 40 105 80 98 74 324 293 376
363 16 22 31 42 34 45 13 13 90 120 118 165 17 28 35 55 39 61 8 11 22 35 82
149 67 126 169 399 185 497 3 15 7 31 9 35 5 7 15 58 22 108 1 11 3 20 5 20 2
0 4 16 14 100 15 120 16 152 17 285 1 134 -3 208 -17 305 -4 28 -8 59 -9 70 0
11 -4 29 -8 40 -3 11 -9 36 -11 55 -10 73 -72 288 -106 368 -6 12 -14 32 -19
45 -44 115 -230 442 -283 498 -7 8 -26 32 -43 54 -47 63 -73 92 -185 205 -166
166 -279 257 -475 377 -29 18 -249 131 -257 132 -4 1 -29 11 -55 22 -27 11
-75 29 -108 40 -33 11 -67 22 -75 25 -8 3 -16 5 -17 5 -2 0 -17 5 -35 10 -18
6 -41 12 -50 15 -10 2 -28 7 -40 10 -46 11 -164 35 -198 39 -19 2 -53 7 -75
10 -22 3 -65 7 -96 9 -31 2 -61 6 -67 10 -6 3 -13 2 -17 -3 -3 -6 -12 -8 -20
-5 -14 6 -154 11 -159 6z m189 -1066 c77 -5 141 -15 171 -26 13 -5 24 -7 24
-4 0 3 6 2 13 -3 6 -4 17 -8 24 -9 39 -6 156 -52 236 -93 289 -147 502 -390
615 -701 17 -47 33 -98 36 -115 2 -16 5 -30 6 -30 3 0 5 -13 17 -90 15 -98 7
-347 -14 -425 -3 -14 -7 -31 -9 -38 -7 -35 -38 -128 -46 -136 -4 -6 -8 -16 -8
-22 0 -28 -84 -187 -142 -268 -32 -45 -105 -132 -132 -157 -10 -10 -16 -22
-12 -27 6 -10 -80 -88 -153 -139 -25 -18 -50 -36 -56 -41 -36 -29 -270 -132
-337 -148 -10 -2 -27 -6 -38 -9 -65 -16 -119 -25 -200 -31 -36 -3 -76 -6 -90
-8 -14 -1 -33 2 -42 6 -9 5 -20 4 -23 -2 -4 -6 -12 -7 -18 -3 -7 4 -30 9 -52
9 -22 1 -40 3 -40 4 0 1 -11 3 -25 4 -33 3 -101 16 -120 23 -8 3 -25 8 -37 10
-12 2 -55 17 -95 33 -40 17 -76 30 -80 30 -13 0 -184 103 -236 141 -119 90
-282 274 -329 371 -10 21 -21 38 -25 38 -5 0 -8 9 -8 19 0 11 -4 21 -9 23 -8
3 -80 184 -87 221 -2 10 -6 28 -10 40 -4 12 -8 31 -10 42 -2 11 -6 36 -10 55
-8 43 -14 352 -6 364 3 5 6 23 8 40 2 17 6 40 8 51 3 11 10 40 16 65 6 25 13
52 17 60 3 8 7 18 8 23 2 4 3 8 5 10 1 1 3 10 5 19 6 32 107 229 139 271 17
23 39 55 50 71 19 29 174 187 217 220 45 34 159 106 169 106 6 0 10 5 10 10 0
6 3 9 8 8 4 -1 30 10 58 25 28 14 54 23 58 20 3 -4 6 -1 6 5 0 7 3 11 8 10 4
-1 37 8 73 20 65 22 90 29 139 37 14 2 36 7 50 10 14 3 56 7 94 10 38 2 70 6
71 7 2 2 21 2 42 0 21 -1 65 -4 98 -6z"/>
</g>
</svg>
